# xmcd
#
# Track frame offsets:
#	150
#	10750
#	28017
#	50295
#	59855
#	70097
#	81252
#	101105
#	121757
#	134242
#	147822
#	163515
#
# Disc length: 2293 seconds
#
# Revision: 0
# Processed by: cddbd v1.5.1PL2 Copyright (c) Steve Scherf et al.
# Submitted via: audiograbber 1.83.01
#
DISCID=a908f30c
DTITLE=Freakwater - Old Paint
DYEAR=1995
DGENRE=Country
TTITLE0=Gravity
TTITLE1=Smoking Daddy
TTITLE2=Gone to Stay
TTITLE3=Little Black Train
TTITLE4=Waitress Song
TTITLE5=My One Desire
TTITLE6=White Rose
TTITLE7=Out of this World
TTITLE8=Kentucky House
TTITLE9=Hero/Heroine
TTITLE10=Ugly Man
TTITLE11=Burying Geraldine
EXTD=
EXTT0=
EXTT1=
EXTT2=
EXTT3=
EXTT4=
EXTT5=
EXTT6=
EXTT7=
EXTT8=
EXTT9=
EXTT10=
EXTT11=
PLAYORDER=
